<svg width="16" height="16" viewBox="0 0 16 16" fill="none" xmlns="http://www.w3.org/2000/svg">
<mask id="mask0_6_865" style="mask-type:alpha" maskUnits="userSpaceOnUse" x="1" y="1" width="13" height="14">
<path d="M2.94663 4.46346C3.65009 4.46346 4.22035 3.89319 4.22035 3.18974C4.22035 2.48628 3.65009 1.91602 2.94663 1.91602C2.24318 1.91602 1.67291 2.48628 1.67291 3.18974C1.67291 3.89319 2.24318 4.46346 2.94663 4.46346Z" fill="white"/>
<path d="M1.67291 6.37402H4.22035V14.3348H1.67291V6.37402ZM6.76779 9.39911V14.3348H8.99681V9.87675C8.99681 9.08068 9.47445 8.44382 10.2705 8.44382C11.0666 8.44382 11.5442 9.23989 11.5442 9.87675V14.3348H13.7733V9.39911C13.7733 8.44382 12.6588 6.37402 10.2705 6.37402C7.8823 6.37402 6.76779 8.44382 6.76779 9.39911Z" fill="white"/>
</mask>
<g mask="url(#mask0_6_865)">
<path d="M0.0713501 0.642578H15.356V15.9272H0.0713501V0.642578Z" fill="#029ba3"/>
</g>
</svg>
