<svg width="13" height="11" viewBox="0 0 13 11" fill="none" xmlns="http://www.w3.org/2000/svg">
<path d="M2.74463 0.507812C2.23791 0.507813 1.75194 0.709105 1.39364 1.06741C1.03534 1.42571 0.834045 1.91168 0.834045 2.41839V2.61041L6.56579 5.69695L12.2975 2.61136V2.41839C12.2975 1.91168 12.0962 1.42571 11.7379 1.06741C11.3796 0.709105 10.8937 0.507813 10.3869 0.507812H2.74463ZM12.2975 3.69562L6.79219 6.65988C6.72261 6.69734 6.64481 6.71695 6.56579 6.71695C6.48676 6.71695 6.40897 6.69734 6.33938 6.65988L0.834045 3.69562V8.15014C0.834045 8.65685 1.03534 9.14282 1.39364 9.50112C1.75194 9.85942 2.23791 10.0607 2.74463 10.0607H10.3869C10.8937 10.0607 11.3796 9.85942 11.7379 9.50112C12.0962 9.14282 12.2975 8.65685 12.2975 8.15014V3.69562Z" fill="#029ba3"/>
</svg>
